solid Untitled-57ec5ecf
facet normal 0.0 0.0 -1.0
  outer loop
    vertex -6156.504146848955 13542.059865371906 0.0
    vertex -6156.445395548718 13540.746868694294 0.0
    vertex -6156.484749186399 13540.146448210082 0.0
  endloop
endfacet
facet normal 0.0 0.0 -1.0
  outer loop
    vertex -6156.445395548718 13540.746868694294 0.0
    vertex -6156.504146848955 13542.059865371906 0.0
    vertex -6156.214876205321 13542.64644821008 0.0
  endloop
endfacet
facet normal 0.0 0.0 -1.0
  outer loop
    vertex -6156.445395548718 13540.746868694294 0.0
    vertex -6156.214876205321 13542.64644821008 0.0
    vertex -6156.328007987329 13541.337015817551 0.0
  endloop
endfacet
facet normal 0.0 0.0 -1.0
  outer loop
    vertex -6156.328007987329 13541.337015817551 0.0
    vertex -6156.214876205321 13542.64644821008 0.0
    vertex -6156.134595035952 13541.906791998961 0.0
  endloop
endfacet
facet normal 0.0 0.0 -1.0
  outer loop
    vertex -6156.134595035952 13541.906791998961 0.0
    vertex -6156.214876205321 13542.64644821008 0.0
    vertex -6155.8515158878545 13543.190255355126 0.0
  endloop
endfacet
facet normal 0.0 0.0 -1.0
  outer loop
    vertex -6156.134595035952 13541.906791998961 0.0
    vertex -6155.8515158878545 13543.190255355126 0.0
    vertex -6155.8684660438075 13542.446448210081 0.0
  endloop
endfacet
facet normal 0.0 0.0 -1.0
  outer loop
    vertex -6155.8684660438075 13542.446448210081 0.0
    vertex -6155.8515158878545 13543.190255355126 0.0
    vertex -6155.534174551739 13542.94675078352 0.0
  endloop
endfacet
facet normal 0.0 0.0 -1.0
  outer loop
    vertex -6155.534174551739 13542.94675078352 0.0
    vertex -6155.8515158878545 13543.190255355126 0.0
    vertex -6155.420283092332 13543.681982116013 0.0
  endloop
endfacet
facet normal 0.0 0.0 -1.0
  outer loop
    vertex -6155.534174551739 13542.94675078352 0.0
    vertex -6155.420283092332 13543.681982116013 0.0
    vertex -6155.137440379857 13543.399139403538 0.0
  endloop
endfacet
facet normal 0.0 0.0 -1.0
  outer loop
    vertex -6155.137440379857 13543.399139403538 0.0
    vertex -6155.420283092332 13543.681982116013 0.0
    vertex -6154.928556331443 13544.113214911538 0.0
  endloop
endfacet
facet normal 0.0 0.0 -1.0
  outer loop
    vertex -6155.137440379857 13543.399139403538 0.0
    vertex -6154.928556331443 13544.113214911538 0.0
    vertex -6154.68505175984 13543.795873575422 0.0
  endloop
endfacet
facet normal 0.0 0.0 -1.0
  outer loop
    vertex -6154.68505175984 13543.795873575422 0.0
    vertex -6154.928556331443 13544.113214911538 0.0
    vertex -6154.384749186399 13544.476575229004 0.0
  endloop
endfacet
facet normal 0.0 0.0 -1.0
  outer loop
    vertex -6154.68505175984 13543.795873575422 0.0
    vertex -6154.384749186399 13544.476575229004 0.0
    vertex -6154.184749186399 13544.13016506749 0.0
  endloop
endfacet
facet normal 0.0 0.0 -1.0
  outer loop
    vertex -6154.184749186399 13544.13016506749 0.0
    vertex -6154.384749186399 13544.476575229004 0.0
    vertex -6153.798166348224 13544.765845872638 0.0
  endloop
endfacet
facet normal 0.0 0.0 -1.0
  outer loop
    vertex -6154.184749186399 13544.13016506749 0.0
    vertex -6153.798166348224 13544.765845872638 0.0
    vertex -6153.645092975278 13544.396294059634 0.0
  endloop
endfacet
facet normal 0.0 0.0 -1.0
  outer loop
    vertex -6153.645092975278 13544.396294059634 0.0
    vertex -6153.798166348224 13544.765845872638 0.0
    vertex -6153.178844411911 13544.976077341526 0.0
  endloop
endfacet
facet normal 0.0 0.0 -1.0
  outer loop
    vertex -6153.645092975278 13544.396294059634 0.0
    vertex -6153.178844411911 13544.976077341526 0.0
    vertex -6153.075316793871 13544.589707011011 0.0
  endloop
endfacet
facet normal 0.0 0.0 -1.0
  outer loop
    vertex -6153.075316793871 13544.589707011011 0.0
    vertex -6153.178844411911 13544.976077341526 0.0
    vertex -6152.537380147499 13545.10367251695 0.0
  endloop
endfacet
facet normal 0.0 0.0 -1.0
  outer loop
    vertex -6153.075316793871 13544.589707011011 0.0
    vertex -6152.537380147499 13545.10367251695 0.0
    vertex -6152.485169670611 13544.7070945724 0.0
  endloop
endfacet
facet normal 0.0 0.0 -1.0
  outer loop
    vertex -6152.485169670611 13544.7070945724 0.0
    vertex -6152.537380147499 13545.10367251695 0.0
    vertex -6151.884749186399 13545.14644821008 0.0
  endloop
endfacet
facet normal 0.0 0.0 -1.0
  outer loop
    vertex -6152.485169670611 13544.7070945724 0.0
    vertex -6151.884749186399 13545.14644821008 0.0
    vertex -6151.884749186399 13544.74644821008 0.0
  endloop
endfacet
facet normal 0.0 0.0 -1.0
  outer loop
    vertex -6151.884749186399 13544.74644821008 0.0
    vertex -6151.884749186399 13545.14644821008 0.0
    vertex -6136.884749186399 13545.14644821008 0.0
  endloop
endfacet
facet normal 0.0 0.0 -1.0
  outer loop
    vertex -6151.884749186399 13544.74644821008 0.0
    vertex -6136.884749186399 13545.14644821008 0.0
    vertex -6137.2847491863995 13544.74644821008 0.0
  endloop
endfacet
facet normal 0.0 0.0 -1.0
  outer loop
    vertex -6137.2847491863995 13544.74644821008 0.0
    vertex -6136.884749186399 13545.14644821008 0.0
    vertex -6137.2847491863995 13525.546448210078 0.0
  endloop
endfacet
facet normal 0.0 0.0 -1.0
  outer loop
    vertex -6156.841973493268 13540.79907917118 0.0
    vertex -6156.884749186399 13525.146448210078 0.0
    vertex -6156.884749186399 13540.146448210082 0.0
  endloop
endfacet
facet normal 0.0 0.0 -1.0
  outer loop
    vertex -6156.884749186399 13525.146448210078 0.0
    vertex -6156.841973493268 13540.79907917118 0.0
    vertex -6156.484749186399 13525.546448210078 0.0
  endloop
endfacet
facet normal 0.0 0.0 -1.0
  outer loop
    vertex -6156.884749186399 13525.146448210078 0.0
    vertex -6156.484749186399 13525.546448210078 0.0
    vertex -6136.884749186399 13525.146448210078 0.0
  endloop
endfacet
facet normal 0.0 0.0 -1.0
  outer loop
    vertex -6156.484749186399 13525.546448210078 0.0
    vertex -6156.841973493268 13540.79907917118 0.0
    vertex -6156.714378317844 13541.440543435596 0.0
  endloop
endfacet
facet normal 0.0 0.0 -1.0
  outer loop
    vertex -6156.484749186399 13525.546448210078 0.0
    vertex -6156.714378317844 13541.440543435596 0.0
    vertex -6156.504146848955 13542.059865371906 0.0
  endloop
endfacet
facet normal 0.0 0.0 -1.0
  outer loop
    vertex -6156.484749186399 13525.546448210078 0.0
    vertex -6156.504146848955 13542.059865371906 0.0
    vertex -6156.484749186399 13540.146448210082 0.0
  endloop
endfacet
facet normal 0.0 0.0 -1.0
  outer loop
    vertex -6136.884749186399 13525.146448210078 0.0
    vertex -6156.484749186399 13525.546448210078 0.0
    vertex -6137.2847491863995 13525.546448210078 0.0
  endloop
endfacet
facet normal 0.0 0.0 -1.0
  outer loop
    vertex -6136.884749186399 13525.146448210078 0.0
    vertex -6137.2847491863995 13525.546448210078 0.0
    vertex -6136.884749186399 13545.14644821008 0.0
  endloop
endfacet
facet normal -0.0 -0.0 1.0
  outer loop
    vertex -6156.884749186399 13525.146448210078 15.0
    vertex -6156.484749186399 13525.546448210078 15.0
    vertex -6156.884749186399 13540.146448210082 15.0
  endloop
endfacet
facet normal -0.0 -0.0 1.0
  outer loop
    vertex -6156.484749186399 13525.546448210078 15.0
    vertex -6156.884749186399 13525.146448210078 15.0
    vertex -6136.884749186399 13525.146448210078 15.0
  endloop
endfacet
facet normal -0.0 -0.0 1.0
  outer loop
    vertex -6156.884749186399 13540.146448210082 15.0
    vertex -6156.484749186399 13525.546448210078 15.0
    vertex -6156.841973493268 13540.79907917118 15.0
  endloop
endfacet
facet normal -0.0 -0.0 1.0
  outer loop
    vertex -6156.841973493268 13540.79907917118 15.0
    vertex -6156.484749186399 13525.546448210078 15.0
    vertex -6156.714378317844 13541.440543435596 15.0
  endloop
endfacet
facet normal -0.0 -0.0 1.0
  outer loop
    vertex -6156.714378317844 13541.440543435596 15.0
    vertex -6156.484749186399 13525.546448210078 15.0
    vertex -6156.504146848955 13542.059865371906 15.0
  endloop
endfacet
facet normal -0.0 -0.0 1.0
  outer loop
    vertex -6156.484749186399 13525.546448210078 15.0
    vertex -6136.884749186399 13525.146448210078 15.0
    vertex -6137.2847491863995 13525.546448210078 15.0
  endloop
endfacet
facet normal -0.0 -0.0 1.0
  outer loop
    vertex -6137.2847491863995 13525.546448210078 15.0
    vertex -6136.884749186399 13525.146448210078 15.0
    vertex -6137.2847491863995 13544.74644821008 15.0
  endloop
endfacet
facet normal -0.0 -0.0 1.0
  outer loop
    vertex -6156.504146848955 13542.059865371906 15.0
    vertex -6156.445395548718 13540.746868694294 15.0
    vertex -6156.214876205321 13542.64644821008 15.0
  endloop
endfacet
facet normal -0.0 -0.0 1.0
  outer loop
    vertex -6156.445395548718 13540.746868694294 15.0
    vertex -6156.504146848955 13542.059865371906 15.0
    vertex -6156.484749186399 13540.146448210082 15.0
  endloop
endfacet
facet normal -0.0 -0.0 1.0
  outer loop
    vertex -6156.484749186399 13540.146448210082 15.0
    vertex -6156.504146848955 13542.059865371906 15.0
    vertex -6156.484749186399 13525.546448210078 15.0
  endloop
endfacet
facet normal -0.0 -0.0 1.0
  outer loop
    vertex -6156.214876205321 13542.64644821008 15.0
    vertex -6156.445395548718 13540.746868694294 15.0
    vertex -6156.328007987329 13541.337015817551 15.0
  endloop
endfacet
facet normal -0.0 -0.0 1.0
  outer loop
    vertex -6156.214876205321 13542.64644821008 15.0
    vertex -6156.328007987329 13541.337015817551 15.0
    vertex -6156.134595035952 13541.906791998961 15.0
  endloop
endfacet
facet normal -0.0 -0.0 1.0
  outer loop
    vertex -6156.214876205321 13542.64644821008 15.0
    vertex -6156.134595035952 13541.906791998961 15.0
    vertex -6155.8515158878545 13543.190255355126 15.0
  endloop
endfacet
facet normal -0.0 -0.0 1.0
  outer loop
    vertex -6155.8515158878545 13543.190255355126 15.0
    vertex -6156.134595035952 13541.906791998961 15.0
    vertex -6155.8684660438075 13542.446448210081 15.0
  endloop
endfacet
facet normal -0.0 -0.0 1.0
  outer loop
    vertex -6155.8515158878545 13543.190255355126 15.0
    vertex -6155.8684660438075 13542.446448210081 15.0
    vertex -6155.534174551739 13542.94675078352 15.0
  endloop
endfacet
facet normal -0.0 -0.0 1.0
  outer loop
    vertex -6155.8515158878545 13543.190255355126 15.0
    vertex -6155.534174551739 13542.94675078352 15.0
    vertex -6155.420283092332 13543.681982116013 15.0
  endloop
endfacet
facet normal -0.0 -0.0 1.0
  outer loop
    vertex -6155.420283092332 13543.681982116013 15.0
    vertex -6155.534174551739 13542.94675078352 15.0
    vertex -6155.137440379857 13543.399139403538 15.0
  endloop
endfacet
facet normal -0.0 -0.0 1.0
  outer loop
    vertex -6155.420283092332 13543.681982116013 15.0
    vertex -6155.137440379857 13543.399139403538 15.0
    vertex -6154.928556331443 13544.113214911538 15.0
  endloop
endfacet
facet normal -0.0 -0.0 1.0
  outer loop
    vertex -6154.928556331443 13544.113214911538 15.0
    vertex -6155.137440379857 13543.399139403538 15.0
    vertex -6154.68505175984 13543.795873575422 15.0
  endloop
endfacet
facet normal -0.0 -0.0 1.0
  outer loop
    vertex -6154.928556331443 13544.113214911538 15.0
    vertex -6154.68505175984 13543.795873575422 15.0
    vertex -6154.384749186399 13544.476575229004 15.0
  endloop
endfacet
facet normal -0.0 -0.0 1.0
  outer loop
    vertex -6154.384749186399 13544.476575229004 15.0
    vertex -6154.68505175984 13543.795873575422 15.0
    vertex -6154.184749186399 13544.13016506749 15.0
  endloop
endfacet
facet normal -0.0 -0.0 1.0
  outer loop
    vertex -6154.384749186399 13544.476575229004 15.0
    vertex -6154.184749186399 13544.13016506749 15.0
    vertex -6153.798166348224 13544.765845872638 15.0
  endloop
endfacet
facet normal -0.0 -0.0 1.0
  outer loop
    vertex -6153.798166348224 13544.765845872638 15.0
    vertex -6154.184749186399 13544.13016506749 15.0
    vertex -6153.645092975278 13544.396294059634 15.0
  endloop
endfacet
facet normal -0.0 -0.0 1.0
  outer loop
    vertex -6153.798166348224 13544.765845872638 15.0
    vertex -6153.645092975278 13544.396294059634 15.0
    vertex -6153.178844411911 13544.976077341526 15.0
  endloop
endfacet
facet normal -0.0 -0.0 1.0
  outer loop
    vertex -6153.178844411911 13544.976077341526 15.0
    vertex -6153.645092975278 13544.396294059634 15.0
    vertex -6153.075316793871 13544.589707011011 15.0
  endloop
endfacet
facet normal -0.0 -0.0 1.0
  outer loop
    vertex -6153.178844411911 13544.976077341526 15.0
    vertex -6153.075316793871 13544.589707011011 15.0
    vertex -6152.537380147499 13545.10367251695 15.0
  endloop
endfacet
facet normal -0.0 -0.0 1.0
  outer loop
    vertex -6152.537380147499 13545.10367251695 15.0
    vertex -6153.075316793871 13544.589707011011 15.0
    vertex -6152.485169670611 13544.7070945724 15.0
  endloop
endfacet
facet normal -0.0 -0.0 1.0
  outer loop
    vertex -6152.537380147499 13545.10367251695 15.0
    vertex -6152.485169670611 13544.7070945724 15.0
    vertex -6151.884749186399 13545.14644821008 15.0
  endloop
endfacet
facet normal -0.0 -0.0 1.0
  outer loop
    vertex -6151.884749186399 13545.14644821008 15.0
    vertex -6152.485169670611 13544.7070945724 15.0
    vertex -6151.884749186399 13544.74644821008 15.0
  endloop
endfacet
facet normal -0.0 -0.0 1.0
  outer loop
    vertex -6151.884749186399 13545.14644821008 15.0
    vertex -6151.884749186399 13544.74644821008 15.0
    vertex -6137.2847491863995 13544.74644821008 15.0
  endloop
endfacet
facet normal -0.0 -0.0 1.0
  outer loop
    vertex -6151.884749186399 13545.14644821008 15.0
    vertex -6137.2847491863995 13544.74644821008 15.0
    vertex -6136.884749186399 13545.14644821008 15.0
  endloop
endfacet
facet normal -0.0 -0.0 1.0
  outer loop
    vertex -6136.884749186399 13545.14644821008 15.0
    vertex -6137.2847491863995 13544.74644821008 15.0
    vertex -6136.884749186399 13525.146448210078 15.0
  endloop
endfacet
facet normal -0.9469301294949438 0.3214394653036386 0.0
  outer loop
    vertex -6156.504146848955 13542.059865371906 15.0
    vertex -6156.714378317844 13541.440543435596 0.0
    vertex -6156.714378317844 13541.440543435596 15.0
  endloop
endfacet
facet normal -0.9469301294949438 0.3214394653036386 0.0
  outer loop
    vertex -6156.714378317844 13541.440543435596 0.0
    vertex -6156.504146848955 13542.059865371906 15.0
    vertex -6156.504146848955 13542.059865371906 0.0
  endloop
endfacet
facet normal -0.8968727415323848 0.4422886902196167 0.0
  outer loop
    vertex -6156.214876205321 13542.64644821008 15.0
    vertex -6156.504146848955 13542.059865371906 0.0
    vertex -6156.504146848955 13542.059865371906 15.0
  endloop
endfacet
facet normal -0.8968727415323848 0.4422886902196167 0.0
  outer loop
    vertex -6156.504146848955 13542.059865371906 0.0
    vertex -6156.214876205321 13542.64644821008 15.0
    vertex -6156.214876205321 13542.64644821008 0.0
  endloop
endfacet
facet normal -0.8314696123033147 0.5555702330184508 0.0
  outer loop
    vertex -6155.8515158878545 13543.190255355126 15.0
    vertex -6156.214876205321 13542.64644821008 0.0
    vertex -6156.214876205321 13542.64644821008 15.0
  endloop
endfacet
facet normal -0.8314696123033147 0.5555702330184508 0.0
  outer loop
    vertex -6156.214876205321 13542.64644821008 0.0
    vertex -6155.8515158878545 13543.190255355126 15.0
    vertex -6155.8515158878545 13543.190255355126 0.0
  endloop
endfacet
facet normal -0.7518398074787469 0.6593458151003319 0.0
  outer loop
    vertex -6155.420283092332 13543.681982116013 15.0
    vertex -6155.8515158878545 13543.190255355126 0.0
    vertex -6155.8515158878545 13543.190255355126 15.0
  endloop
endfacet
facet normal -0.7518398074787469 0.6593458151003319 0.0
  outer loop
    vertex -6155.8515158878545 13543.190255355126 0.0
    vertex -6155.420283092332 13543.681982116013 15.0
    vertex -6155.420283092332 13543.681982116013 0.0
  endloop
endfacet
facet normal -0.6593458151010325 0.7518398074781324 0.0
  outer loop
    vertex -6155.420283092332 13543.681982116013 15.0
    vertex -6154.928556331443 13544.113214911538 0.0
    vertex -6155.420283092332 13543.681982116013 0.0
  endloop
endfacet
facet normal -0.6593458151010325 0.7518398074781324 0.0
  outer loop
    vertex -6154.928556331443 13544.113214911538 0.0
    vertex -6155.420283092332 13543.681982116013 15.0
    vertex -6154.928556331443 13544.113214911538 15.0
  endloop
endfacet
facet normal -0.5555702330179443 0.8314696123036531 0.0
  outer loop
    vertex -6154.928556331443 13544.113214911538 15.0
    vertex -6154.384749186399 13544.476575229004 0.0
    vertex -6154.928556331443 13544.113214911538 0.0
  endloop
endfacet
facet normal -0.5555702330179443 0.8314696123036531 0.0
  outer loop
    vertex -6154.384749186399 13544.476575229004 0.0
    vertex -6154.928556331443 13544.113214911538 15.0
    vertex -6154.384749186399 13544.476575229004 15.0
  endloop
endfacet
facet normal -0.4422886902196167 0.8968727415323848 0.0
  outer loop
    vertex -6154.384749186399 13544.476575229004 15.0
    vertex -6153.798166348224 13544.765845872638 0.0
    vertex -6154.384749186399 13544.476575229004 0.0
  endloop
endfacet
facet normal -0.4422886902196167 0.8968727415323848 0.0
  outer loop
    vertex -6153.798166348224 13544.765845872638 0.0
    vertex -6154.384749186399 13544.476575229004 15.0
    vertex -6153.798166348224 13544.765845872638 15.0
  endloop
endfacet
facet normal -0.32143946530065115 0.946930129495958 0.0
  outer loop
    vertex -6153.798166348224 13544.765845872638 15.0
    vertex -6153.178844411911 13544.976077341526 0.0
    vertex -6153.798166348224 13544.765845872638 0.0
  endloop
endfacet
facet normal -0.32143946530065115 0.946930129495958 0.0
  outer loop
    vertex -6153.178844411911 13544.976077341526 0.0
    vertex -6153.798166348224 13544.765845872638 15.0
    vertex -6153.178844411911 13544.976077341526 15.0
  endloop
endfacet
facet normal -0.19509032201894877 0.9807852804026694 0.0
  outer loop
    vertex -6153.178844411911 13544.976077341526 15.0
    vertex -6152.537380147499 13545.10367251695 0.0
    vertex -6153.178844411911 13544.976077341526 0.0
  endloop
endfacet
facet normal -0.19509032201894877 0.9807852804026694 0.0
  outer loop
    vertex -6152.537380147499 13545.10367251695 0.0
    vertex -6153.178844411911 13544.976077341526 15.0
    vertex -6152.537380147499 13545.10367251695 15.0
  endloop
endfacet
facet normal -0.06540312922724087 0.9978589232387938 0.0
  outer loop
    vertex -6152.537380147499 13545.10367251695 15.0
    vertex -6151.884749186399 13545.14644821008 0.0
    vertex -6152.537380147499 13545.10367251695 0.0
  endloop
endfacet
facet normal -0.06540312922724087 0.9978589232387938 0.0
  outer loop
    vertex -6151.884749186399 13545.14644821008 0.0
    vertex -6152.537380147499 13545.10367251695 15.0
    vertex -6151.884749186399 13545.14644821008 15.0
  endloop
endfacet
facet normal -0.0 1.0 0.0
  outer loop
    vertex -6151.884749186399 13545.14644821008 15.0
    vertex -6136.884749186399 13545.14644821008 0.0
    vertex -6151.884749186399 13545.14644821008 0.0
  endloop
endfacet
facet normal -0.0 1.0 0.0
  outer loop
    vertex -6136.884749186399 13545.14644821008 0.0
    vertex -6151.884749186399 13545.14644821008 15.0
    vertex -6136.884749186399 13545.14644821008 15.0
  endloop
endfacet
facet normal 1.0 0.0 0.0
  outer loop
    vertex -6136.884749186399 13545.14644821008 0.0
    vertex -6136.884749186399 13525.146448210078 15.0
    vertex -6136.884749186399 13525.146448210078 0.0
  endloop
endfacet
facet normal 1.0 0.0 0.0
  outer loop
    vertex -6136.884749186399 13525.146448210078 15.0
    vertex -6136.884749186399 13545.14644821008 0.0
    vertex -6136.884749186399 13545.14644821008 15.0
  endloop
endfacet
facet normal -0.0 -1.0 -0.0
  outer loop
    vertex -6136.884749186399 13525.146448210078 15.0
    vertex -6156.884749186399 13525.146448210078 0.0
    vertex -6136.884749186399 13525.146448210078 0.0
  endloop
endfacet
facet normal -0.0 -1.0 -0.0
  outer loop
    vertex -6156.884749186399 13525.146448210078 0.0
    vertex -6136.884749186399 13525.146448210078 15.0
    vertex -6156.884749186399 13525.146448210078 15.0
  endloop
endfacet
facet normal -1.0 0.0 0.0
  outer loop
    vertex -6156.884749186399 13540.146448210082 15.0
    vertex -6156.884749186399 13525.146448210078 0.0
    vertex -6156.884749186399 13525.146448210078 15.0
  endloop
endfacet
facet normal -1.0 0.0 0.0
  outer loop
    vertex -6156.884749186399 13525.146448210078 0.0
    vertex -6156.884749186399 13540.146448210082 15.0
    vertex -6156.884749186399 13540.146448210082 0.0
  endloop
endfacet
facet normal -0.9978589232385731 0.06540312923061012 0.0
  outer loop
    vertex -6156.841973493268 13540.79907917118 15.0
    vertex -6156.884749186399 13540.146448210082 0.0
    vertex -6156.884749186399 13540.146448210082 15.0
  endloop
endfacet
facet normal -0.9978589232385731 0.06540312923061012 0.0
  outer loop
    vertex -6156.884749186399 13540.146448210082 0.0
    vertex -6156.841973493268 13540.79907917118 15.0
    vertex -6156.841973493268 13540.79907917118 0.0
  endloop
endfacet
facet normal -0.9807852804034292 0.19509032201512985 0.0
  outer loop
    vertex -6156.714378317844 13541.440543435596 15.0
    vertex -6156.841973493268 13540.79907917118 0.0
    vertex -6156.841973493268 13540.79907917118 15.0
  endloop
endfacet
facet normal -0.9807852804034292 0.19509032201512985 0.0
  outer loop
    vertex -6156.841973493268 13540.79907917118 0.0
    vertex -6156.714378317844 13541.440543435596 15.0
    vertex -6156.714378317844 13541.440543435596 0.0
  endloop
endfacet
facet normal 0.9978589232385744 -0.06540312923058827 0.0
  outer loop
    vertex -6156.445395548718 13540.746868694294 0.0
    vertex -6156.484749186399 13540.146448210082 15.0
    vertex -6156.484749186399 13540.146448210082 0.0
  endloop
endfacet
facet normal 0.9978589232385744 -0.06540312923058827 0.0
  outer loop
    vertex -6156.484749186399 13540.146448210082 15.0
    vertex -6156.445395548718 13540.746868694294 0.0
    vertex -6156.445395548718 13540.746868694294 15.0
  endloop
endfacet
facet normal 1.0 0.0 0.0
  outer loop
    vertex -6156.484749186399 13540.146448210082 0.0
    vertex -6156.484749186399 13525.546448210078 15.0
    vertex -6156.484749186399 13525.546448210078 0.0
  endloop
endfacet
facet normal 1.0 0.0 0.0
  outer loop
    vertex -6156.484749186399 13525.546448210078 15.0
    vertex -6156.484749186399 13540.146448210082 0.0
    vertex -6156.484749186399 13540.146448210082 15.0
  endloop
endfacet
facet normal -0.0 1.0 0.0
  outer loop
    vertex -6156.484749186399 13525.546448210078 15.0
    vertex -6137.2847491863995 13525.546448210078 0.0
    vertex -6156.484749186399 13525.546448210078 0.0
  endloop
endfacet
facet normal -0.0 1.0 0.0
  outer loop
    vertex -6137.2847491863995 13525.546448210078 0.0
    vertex -6156.484749186399 13525.546448210078 15.0
    vertex -6137.2847491863995 13525.546448210078 15.0
  endloop
endfacet
facet normal -1.0 0.0 0.0
  outer loop
    vertex -6137.2847491863995 13544.74644821008 15.0
    vertex -6137.2847491863995 13525.546448210078 0.0
    vertex -6137.2847491863995 13525.546448210078 15.0
  endloop
endfacet
facet normal -1.0 0.0 0.0
  outer loop
    vertex -6137.2847491863995 13525.546448210078 0.0
    vertex -6137.2847491863995 13544.74644821008 15.0
    vertex -6137.2847491863995 13544.74644821008 0.0
  endloop
endfacet
facet normal -0.0 -1.0 -0.0
  outer loop
    vertex -6137.2847491863995 13544.74644821008 15.0
    vertex -6151.884749186399 13544.74644821008 0.0
    vertex -6137.2847491863995 13544.74644821008 0.0
  endloop
endfacet
facet normal -0.0 -1.0 -0.0
  outer loop
    vertex -6151.884749186399 13544.74644821008 0.0
    vertex -6137.2847491863995 13544.74644821008 15.0
    vertex -6151.884749186399 13544.74644821008 15.0
  endloop
endfacet
facet normal 0.06540312922955023 -0.9978589232386424 0.0
  outer loop
    vertex -6151.884749186399 13544.74644821008 15.0
    vertex -6152.485169670611 13544.7070945724 0.0
    vertex -6151.884749186399 13544.74644821008 0.0
  endloop
endfacet
facet normal 0.06540312922955023 -0.9978589232386424 0.0
  outer loop
    vertex -6152.485169670611 13544.7070945724 0.0
    vertex -6151.884749186399 13544.74644821008 15.0
    vertex -6152.485169670611 13544.7070945724 15.0
  endloop
endfacet
facet normal 0.19509032201306828 -0.9807852804038392 0.0
  outer loop
    vertex -6152.485169670611 13544.7070945724 15.0
    vertex -6153.075316793871 13544.589707011011 0.0
    vertex -6152.485169670611 13544.7070945724 0.0
  endloop
endfacet
facet normal 0.19509032201306828 -0.9807852804038392 0.0
  outer loop
    vertex -6153.075316793871 13544.589707011011 0.0
    vertex -6152.485169670611 13544.7070945724 15.0
    vertex -6153.075316793871 13544.589707011011 15.0
  endloop
endfacet
facet normal 0.3214394653025884 -0.9469301294953003 0.0
  outer loop
    vertex -6153.075316793871 13544.589707011011 15.0
    vertex -6153.645092975278 13544.396294059634 0.0
    vertex -6153.075316793871 13544.589707011011 0.0
  endloop
endfacet
facet normal 0.3214394653025884 -0.9469301294953003 0.0
  outer loop
    vertex -6153.645092975278 13544.396294059634 0.0
    vertex -6153.075316793871 13544.589707011011 15.0
    vertex -6153.645092975278 13544.396294059634 15.0
  endloop
endfacet
facet normal 0.4422886902195956 -0.8968727415323953 0.0
  outer loop
    vertex -6153.645092975278 13544.396294059634 15.0
    vertex -6154.184749186399 13544.13016506749 0.0
    vertex -6153.645092975278 13544.396294059634 0.0
  endloop
endfacet
facet normal 0.4422886902195956 -0.8968727415323953 0.0
  outer loop
    vertex -6154.184749186399 13544.13016506749 0.0
    vertex -6153.645092975278 13544.396294059634 15.0
    vertex -6154.184749186399 13544.13016506749 15.0
  endloop
endfacet
facet normal 0.5555702330205325 -0.8314696123019236 0.0
  outer loop
    vertex -6154.184749186399 13544.13016506749 15.0
    vertex -6154.68505175984 13543.795873575422 0.0
    vertex -6154.184749186399 13544.13016506749 0.0
  endloop
endfacet
facet normal 0.5555702330205325 -0.8314696123019236 0.0
  outer loop
    vertex -6154.68505175984 13543.795873575422 0.0
    vertex -6154.184749186399 13544.13016506749 15.0
    vertex -6154.68505175984 13543.795873575422 15.0
  endloop
endfacet
facet normal 0.6593458151009239 -0.7518398074782277 0.0
  outer loop
    vertex -6154.68505175984 13543.795873575422 15.0
    vertex -6155.137440379857 13543.399139403538 0.0
    vertex -6154.68505175984 13543.795873575422 0.0
  endloop
endfacet
facet normal 0.6593458151009239 -0.7518398074782277 0.0
  outer loop
    vertex -6155.137440379857 13543.399139403538 0.0
    vertex -6154.68505175984 13543.795873575422 15.0
    vertex -6155.137440379857 13543.399139403538 15.0
  endloop
endfacet
facet normal 0.751839807479344 -0.6593458150996511 0.0
  outer loop
    vertex -6155.137440379857 13543.399139403538 0.0
    vertex -6155.534174551739 13542.94675078352 15.0
    vertex -6155.534174551739 13542.94675078352 0.0
  endloop
endfacet
facet normal 0.751839807479344 -0.6593458150996511 0.0
  outer loop
    vertex -6155.534174551739 13542.94675078352 15.0
    vertex -6155.137440379857 13543.399139403538 0.0
    vertex -6155.137440379857 13543.399139403538 15.0
  endloop
endfacet
facet normal 0.8314696123021076 -0.5555702330202574 0.0
  outer loop
    vertex -6155.534174551739 13542.94675078352 0.0
    vertex -6155.8684660438075 13542.446448210081 15.0
    vertex -6155.8684660438075 13542.446448210081 0.0
  endloop
endfacet
facet normal 0.8314696123021076 -0.5555702330202574 0.0
  outer loop
    vertex -6155.8684660438075 13542.446448210081 15.0
    vertex -6155.534174551739 13542.94675078352 0.0
    vertex -6155.534174551739 13542.94675078352 15.0
  endloop
endfacet
facet normal 0.8968727415321607 -0.44228869022007156 0.0
  outer loop
    vertex -6155.8684660438075 13542.446448210081 0.0
    vertex -6156.134595035952 13541.906791998961 15.0
    vertex -6156.134595035952 13541.906791998961 0.0
  endloop
endfacet
facet normal 0.8968727415321607 -0.44228869022007156 0.0
  outer loop
    vertex -6156.134595035952 13541.906791998961 15.0
    vertex -6155.8684660438075 13542.446448210081 0.0
    vertex -6155.8684660438075 13542.446448210081 15.0
  endloop
endfacet
facet normal 0.9469301294955482 -0.321439465301858 0.0
  outer loop
    vertex -6156.134595035952 13541.906791998961 0.0
    vertex -6156.328007987329 13541.337015817551 15.0
    vertex -6156.328007987329 13541.337015817551 0.0
  endloop
endfacet
facet normal 0.9469301294955482 -0.321439465301858 0.0
  outer loop
    vertex -6156.328007987329 13541.337015817551 15.0
    vertex -6156.134595035952 13541.906791998961 0.0
    vertex -6156.134595035952 13541.906791998961 15.0
  endloop
endfacet
facet normal 0.9807852804031973 -0.19509032201629475 0.0
  outer loop
    vertex -6156.328007987329 13541.337015817551 0.0
    vertex -6156.445395548718 13540.746868694294 15.0
    vertex -6156.445395548718 13540.746868694294 0.0
  endloop
endfacet
facet normal 0.9807852804031973 -0.19509032201629475 0.0
  outer loop
    vertex -6156.445395548718 13540.746868694294 15.0
    vertex -6156.328007987329 13541.337015817551 0.0
    vertex -6156.328007987329 13541.337015817551 15.0
  endloop
endfacet
endsolid Untitled-57ec5ecf
